# xmcd
#
# Track frame offsets:
#	150
#	16577
#	37014
#	71178
#	101727
#	120382
#	125520
#
# Disc length: 1983 seconds
#
# Revision: 0
# Processed by: cddbd v1.5.2PL0 Copyright (c) Steve Scherf et al.
# Submitted via: EasyCDDAExtractor 2011.0.0.0
#
DISCID=5907bd07
DTITLE=Mats Sannetorp - Blå vägen
DYEAR=2009
DGENRE=Blues
TTITLE0=Blå vägen
TTITLE1=Det var då
TTITLE2=Höra din röst
TTITLE3=När mörkret faller
TTITLE4=Jag måste gå
TTITLE5=Julia
TTITLE6=Reflections
EXTD=
EXTT0=
EXTT1=
EXTT2=
EXTT3=
EXTT4=
EXTT5=
EXTT6=
PLAYORDER=
